#!OML:ASF F:\VICON\USERDATA\INSTALL\rory3\rory3.ASF
:FULLY-SPECIFIED
:DEGREES
26
root -7.194237403733821 17.60027815022249 4.630859965895451 -5.073151013677048 33.5771405089443 -16.021954533378548
lfemur -2.4199887424245716 16.151610044218806 8.278826159182644
ltibia 35.80080386608465
lfoot 4.602237581944943 10.574941014972165
ltoes -17.863515156855087
rfemur -27.24790516989862 12.805214188440889 27.371433464388815
rtibia 34.40829297813715
rfoot -3.426376036122676 29.227091860798886
rtoes 32.6157564646533
lowerback 2.496727435907726 -7.959944569294349 -16.099100990918938
upperback -1.2727721177741511 -10.805115702143478 -3.2026104309391243
thorax 0.5635806566158701 -5.384327448004694 4.607561122921641
lowerneck -4.802439738297814 18.916458170673863 0.6719863354569426
upperneck 11.449233169525 28.046818476141727 -11.470798978421044
head 6.8702577172531765 12.704370958711754 -1.2042443820866489
lclavicle -3.8044609652612906e-15 -2.916064027216209e-15
lhumerus 100.27294133079721 -39.26816726227691 43.85093271070693
lradius 31.936035842848927
lwrist 3.520934707875785
lhand -13.42442672937401 1.2189879830744026
lfingers 7.125020000000003
lthumb -167.32465363115782 297.1664170307108
rclavicle -3.8044609652612906e-15 -2.916064027216209e-15
rhumerus 33.27981977897415 -11.595582914939241 -70.79968829032678
rradius 98.87162607951976
rwrist -7.301754800750844
rhand -59.228543725533335 33.09340426938299
rfingers 7.125020000000003
rthumb -31.391831814836316 5.600746652846604
27
root -7.2042469686373 17.600463928566924 4.7196576685000275 -5.090398480397013 33.1080151527661 -16.06917095400908
lfemur -1.981479974229348 16.13501215011073 8.01120539534951
ltibia 35.424535612983775
lfoot 5.304305056112323 10.608839894685723
ltoes -20.20139588693443
rfemur -28.323311451077803 13.312033567820034 26.981536870840397
rtibia 34.88294953740206
rfoot -4.144449959579319 29.444617380531227
rtoes 33.24774848593388
lowerback 2.475741438145789 -8.63333227564274 -16.611679889058443
upperback -1.5694248557042894 -11.740516374552548 -3.3586909061311916
thorax 0.26394769390367734 -5.770252233625434 4.570797445578111
lowerneck -5.015473413116593 19.160291372715044 0.42495696713827036
upperneck 10.412473804882971 28.23207582641856 -11.955919003381418
head 6.531665449551977 12.837378473084422 -1.2447998541114627
lclavicle -5.505226493589505e-15 -4.13268864218146e-15
lhumerus 101.25294887560014 -39.36993820863785 44.02446187868222
lradius 31.848197512640162
lwrist 3.036416526704482
lhand -14.925155639973564 0.6052551339807337
lfingers 7.125020000000003
lthumb -168.77046797602796 292.1016406804555
rclavicle -5.505226493589505e-15 -4.13268864218146e-15
rhumerus 33.72479609550051 -13.742237353629525 -69.29473934561094
rradius 99.1269441486341
rwrist -5.483819252163018
rhand -59.82826459262415 33.82658210137046
rfingers 7.125020000000003
rthumb -31.969891954994896 6.304210601431002
28
root -7.170060860037766 17.611492747489656 4.829822848667873 -2.8114499294527633 32.31864007614354 -13.830582543789916
lfemur -1.6201341482207283 16.29419913368545 8.070970593413923
ltibia 35.28806357781728
lfoot 6.652764866732575 10.968248178122764
ltoes -20.61222634586935
rfemur -28.465753312747637 13.72750816403794 26.80428316108486
rtibia 34.8488211546835
rfoot -4.160253070851521 30.329115173811992
rtoes 34.37316274085525
lowerback 2.69194904486233 -8.793219974515386 -16.68340015201628
upperback -1.8827700355350485 -11.983058744347558 -3.578221452267109
thorax -0.08993866726188271 -5.8659332066158925 4.357838276813027
lowerneck -5.136997849377173 19.70170420826784 0.16692375144965454
upperneck 8.775709830100702 28.8370065630955 -12.032992290332032
head 6.08269660812453 13.157340991892031 -1.2372273822487612
lclavicle -5.176990435686161e-15 -3.903672383778141e-15
lhumerus 103.74254671755821 -38.44441251842724 44.55222828612064
lradius 33.10474656563148
lwrist 3.0762042658400865
lhand -16.737285414373112 -0.6322418326687611
lfingers 7.125020000000003
lthumb -170.51708120630403 293.2719902280163
rclavicle -5.176990435686161e-15 -3.903672383778141e-15
rhumerus 36.333566990159355 -15.581443435452679 -66.42985468483356
rradius 101.1843569436817
rwrist -2.457066133086519
rhand -60.1108901867751 35.12880230245436
rfingers 7.125020000000003
rthumb -32.242987256305284 7.571002040142059
29
root -7.147762345158872 17.625511575001507 4.925598238063124 -1.667980443171004 31.818665470657727 -12.653181492923238
lfemur -0.8684356808374503 16.720836267021653 7.861497361046283
ltibia 34.97782910346823
lfoot 7.905606790783782 10.84343668388049
ltoes -21.964503964987312
rfemur -28.374977592877514 14.159689988092586 26.227170420198153
rtibia 35.11414942783114
rfoot -3.8119582927741877 31.419381268780704
rtoes 35.69208039303715
lowerback 2.6777204903830816 -8.84939673165347 -16.607114212624513
upperback -2.049358561375215 -12.092013786188208 -3.58492137253565
thorax -0.3368655750762284 -5.844324523609313 4.40171913649636
lowerneck -5.112983498013638 19.97059488641274 0.07042683196105515
upperneck 8.242042362689595 29.073166597578695 -12.106443151781232
head 5.953531220814612 13.326089490695487 -1.2537760705751075
lclavicle -4.732591072952787e-15 -3.614334935292421e-15
lhumerus 104.82821548061656 -37.649511803800394 46.0080545263138
lradius 33.86558669749196
lwrist 3.5643451168058284
lhand -18.491207033441956 -1.008212519645852
lfingers 7.125020000000003
lthumb -172.20655746200936 292.57764095970504
rclavicle -4.7325910729527865e-15 -3.614334935292421e-15
rhumerus 37.474141196819076 -16.55467233984882 -64.30934897578663
rradius 102.38817907412874
rwrist 0.3091753867457072
rhand -60.00693474046894 35.59350934864635
rfingers 7.125020000000003
rthumb -32.142899899423426 8.045403088920768
